<?xml version="1.0" standalone="no"?><!DOCTYPE svg PUBLIC "-//W3C//DTD SVG 1.1//EN" "http://www.w3.org/Graphics/SVG/1.1/DTD/svg11.dtd"><svg height="400" node-id="1" sillyvg="true" template-height="400" template-width="400" version="1.1" viewBox="0 0 400 400" width="400" xmlns="http://www.w3.org/2000/svg" xmlns:xlink="http://www.w3.org/1999/xlink"><defs node-id="17"></defs><path d="M 116.98 177.16 C 116.98 177.16 93.26 175.52 81.99 168.14 C 70.73 160.77 63.37 149.93 50.94 153.57 C 38.52 157.22 35.98 174.63 35.98 174.63 L 60.41 202.97 L 107.42 215.87 Z" fill="#333333" fill-rule="nonzero" node-id="19" stroke="#00d8ff" stroke-linecap="round" stroke-width="2.4" target-height="65.93935" target-width="80.999985" target-x="35.979218" target-y="149.93065"></path><path d="M 247.75 177.48 C 247.75 177.48 226.40 160.97 202.56 144.38 C 180.09 128.75 100.92 116.80 82.69 196.37 C 71.35 245.86 89.06 261.87 89.06 261.87 C 90.51 265.96 93.51 269.34 97.44 271.32 C 103.83 274.34 160.28 274.48 187.63 273.31 C 214.99 272.14 305.95 268.80 305.95 268.80 Z" fill="#ffffff" fill-rule="nonzero" node-id="21" stroke="#00d2ff" stroke-linecap="round" stroke-width="2.4" target-height="157.6772" target-width="234.60486" target-x="71.34559" target-y="116.80455"></path><path d="M 387.11 197.99 C 387.11 239.41 353.53 272.99 312.11 272.99 C 270.68 272.99 237.11 239.41 237.11 197.99 C 237.11 156.56 270.68 122.99 312.11 122.99 C 353.53 122.99 387.11 156.56 387.11 197.99 Z" fill="#ffffff" fill-rule="nonzero" node-id="23" stroke="#00d4ff" stroke-linecap="round" stroke-width="2.4" target-height="150.00003" target-width="150.00003" target-x="237.10602" target-y="122.98585"></path><path d="M 401.95 219.51 C 401.95 235.53 389.64 248.51 374.45 248.51 C 359.26 248.51 346.95 235.53 346.95 219.51 C 346.95 203.49 359.26 190.51 374.45 190.51 C 389.64 190.51 401.95 203.49 401.95 219.51 Z" fill="#333333" fill-rule="nonzero" node-id="25" stroke="#00d7ff" stroke-linecap="round" stroke-width="1" target-height="58.000015" target-width="54.99997" target-x="346.95038" target-y="190.51105"></path><g node-id="40"><path d="M 337.68 149.39 L 340.13 151.86 L 341.95 154.81 L 343.19 158.34 L 343.79 162.12 L 343.79 166.19 L 343.15 170.62 L 341.94 174.93 L 340.11 179.24 L 337.59 183.61 L 334.55 187.57 L 331.34 190.82 L 327.93 193.42 L 324.24 195.48 L 320.66 196.77 L 317.15 197.36 L 313.65 197.22 L 310.47 196.29 L 307.53 194.58 L 305.08 192.12 L 303.26 189.16 L 302.02 185.63 L 301.43 181.85 L 301.42 177.78 L 302.06 173.35 L 303.27 169.05 L 305.10 164.73 L 307.62 160.36 L 310.66 156.40 L 313.87 153.15 L 317.28 150.55 L 320.97 148.49 L 324.55 147.20 L 328.06 146.61 L 331.56 146.75 L 334.74 147.68 L 337.68 149.39 Z" fill="#333333" fill-rule="nonzero" group-id="1" node-id="29" stroke="#ffffff" stroke-linecap="round" stroke-width="1" target-height="50.746597" target-width="42.36606" target-x="301.423" target-y="146.61249"></path></g><path d="M 312.11 122.99 C 312.11 128.51 307.63 132.99 302.11 132.99 C 296.58 132.99 292.11 128.51 292.11 122.99 C 292.11 117.46 296.58 112.99 302.11 112.99 C 307.63 112.99 312.11 117.46 312.11 122.99 Z" fill="#333333" fill-rule="nonzero" node-id="32" stroke="#00d6ff" stroke-linecap="round" stroke-width="1" target-height="20" target-width="20.00003" target-x="292.10596" target-y="112.985855"></path><path d="M 292.11 152.87 C 292.11 158.39 287.63 162.87 282.11 162.87 C 276.58 162.87 272.11 158.39 272.11 152.87 C 272.11 147.35 276.58 142.87 282.11 142.87 C 287.63 142.87 292.11 147.35 292.11 152.87 Z" fill="#db0e0e" fill-rule="nonzero" node-id="34" stroke="#000000" stroke-linecap="round" stroke-width="1" target-height="20.000015" target-width="20" target-x="272.10602" target-y="142.86998"></path><path d="M 237.11 231.42 C 237.11 231.42 237.87 215.10 230.13 207.14 C 222.40 199.18 213.49 187.02 204.97 169.95 C 196.46 152.88 191.41 135.55 177.11 129.98 C 162.81 124.42 143.44 130.13 134.92 152.70 C 126.41 175.28 136.45 223.01 173.25 240.14 C 210.05 257.27 218.14 253.05 223.18 251.15 C 228.21 249.25 234.77 243.94 237.11 231.42 Z" fill="#333333" fill-rule="nonzero" node-id="36" stroke="#ffffff" stroke-linecap="round" stroke-width="1" target-height="132.85352" target-width="111.46067" target-x="126.408226" target-y="124.41537"></path><path d="M 135.38 270.95 L 76.27 273.99 C 76.27 273.99 44.18 272.94 35.72 271.07 C 30.72 270.07 26.28 267.31 23.24 263.33 C 23.24 263.33 -5.62 221.37 3.09 198.22 C 11.79 175.08 27.60 164.81 39.47 170.52 C 39.47 170.52 54.51 177.45 58.86 182.84 C 63.21 188.23 73.10 202.09 81.41 204.80 C 89.73 207.50 140.40 206.32 148.26 228.29 C 160.13 261.43 135.38 270.95 135.38 270.95 Z" fill="#333333" fill-rule="nonzero" node-id="38" stroke="#00d8ff" stroke-linecap="round" stroke-width="2.4" target-height="109.17421" target-width="165.74658" target-x="-5.616214" target-y="164.81163"></path></svg>